<?xml version="1.0" encoding="UTF-8"?>
<!-- Uploaded to: SVG Find, www.svgrepo.com, Generator: SVG Find Mixer Tools -->
<svg width="800px" height="800px" version="1.1" viewBox="144 144 512 512" xmlns="http://www.w3.org/2000/svg">
 <defs>
  <clipPath id="b">
   <path d="m148.09 148.09h398.91v503.81h-398.91z"/>
  </clipPath>
  <clipPath id="a">
   <path d="m567 169h84.902v85h-84.902z"/>
  </clipPath>
 </defs>
 <g clip-path="url(#b)">
  <path d="m546.94 651.9h-398.85v-424.14l79.664-79.664h319.18v94.465h-20.992v-73.473h-289.58l-67.281 67.281v394.54h356.86v-304.38h20.992z"/>
 </g>
 <path d="m253.05 253.05h-94.465v-20.992h73.473v-73.473h20.992z"/>
 <g clip-path="url(#a)">
  <path d="m609.92 253.05c-11.133 0-21.812-4.4258-29.688-12.297-7.8711-7.875-12.297-18.555-12.297-29.688 0-11.137 4.4258-21.812 12.297-29.688 7.875-7.875 18.555-12.297 29.688-12.297 11.137 0 21.816 4.4219 29.688 12.297 7.875 7.875 12.297 18.551 12.297 29.688 0 11.133-4.4219 21.812-12.297 29.688-7.8711 7.8711-18.551 12.297-29.688 12.297zm0-62.977c-5.5664 0-10.906 2.2109-14.844 6.1484-3.9336 3.9375-6.1484 9.2773-6.1484 14.844 0 5.5664 2.2148 10.906 6.1484 14.844 3.9375 3.9375 9.2773 6.1484 14.844 6.1484 7.5 0 14.43-4 18.18-10.496s3.75-14.496 0-20.992c-3.75-6.4961-10.68-10.496-18.18-10.496z"/>
 </g>
 <path d="m400 452.48c-11.137 0-21.816-4.4258-29.688-12.297-7.875-7.875-12.297-18.555-12.297-29.688 0-11.137 4.4219-21.816 12.297-29.688 7.8711-7.875 18.551-12.297 29.688-12.297 11.133 0 21.812 4.4219 29.688 12.297 7.8711 7.8711 12.297 18.551 12.297 29.688 0 11.133-4.4258 21.812-12.297 29.688-7.875 7.8711-18.555 12.297-29.688 12.297zm0-62.977c-5.5703 0-10.91 2.2109-14.844 6.1484-3.9375 3.9336-6.1484 9.2734-6.1484 14.844 0 5.5664 2.2109 10.906 6.1484 14.844 3.9336 3.9336 9.2734 6.1484 14.844 6.1484 7.5 0 14.43-4.0039 18.18-10.496 3.75-6.4961 3.75-14.5 0-20.992-3.75-6.4961-10.68-10.496-18.18-10.496z"/>
 <path d="m295.04 358.02c-11.137 0-21.816-4.4258-29.688-12.297-7.875-7.875-12.297-18.555-12.297-29.688 0-11.137 4.4219-21.816 12.297-29.688 7.8711-7.875 18.551-12.297 29.688-12.297 11.133 0 21.812 4.4219 29.688 12.297 7.8711 7.8711 12.297 18.551 12.297 29.688 0 11.133-4.4258 21.812-12.297 29.688-7.875 7.8711-18.555 12.297-29.688 12.297zm0-62.977c-5.5664 0-10.906 2.2109-14.844 6.1484s-6.1484 9.2734-6.1484 14.844c0 5.5664 2.2109 10.906 6.1484 14.844s9.2773 6.1484 14.844 6.1484c7.5 0 14.43-4.0039 18.18-10.496 3.75-6.4961 3.75-14.5 0-20.992-3.75-6.4961-10.68-10.496-18.18-10.496z"/>
 <path d="m309.3 345.05 13.441-16.125 62.969 52.484-13.441 16.125z"/>
 <path d="m423.64 382.92 157.94-158.38 14.863 14.824-157.94 158.38z"/>
 <path d="m182.67 413.59 83.941-83.941 14.844 14.844-83.941 83.941z"/>
 <path d="m253.05 609.92h-20.992v-115.46h-20.992v115.46h-20.992v-136.45h62.977z"/>
 <path d="m337.02 609.92h-20.992v-199.42h-20.992v199.42h-20.992v-220.41h62.977z"/>
 <path d="m420.99 609.92h-20.992v-94.465h-20.992v94.465h-20.992v-115.46h62.977z"/>
 <path d="m504.96 609.92h-20.992v-136.45h-20.988v136.45h-20.992v-157.44h62.973z"/>
</svg>